<?xml version="1.0" standalone="no"?>
<!DOCTYPE svg PUBLIC "-//W3C//DTD SVG 20010904//EN"
 "http://www.w3.org/TR/2001/REC-SVG-20010904/DTD/svg10.dtd">
<svg version="1.0" xmlns="http://www.w3.org/2000/svg"
 width="119.000000pt" height="119.000000pt" viewBox="0 0 119.000000 119.000000"
 preserveAspectRatio="xMidYMid meet">
<metadata>
Created by potrace 1.11, written by Peter Selinger 2001-2013
</metadata>
<g transform="translate(0.000000,119.000000) scale(0.100000,-0.100000)"
fill="#000000" stroke="none">
<path d="M489 1127 c-58 -34 -187 -109 -287 -167 l-182 -105 -1 -75 c0 -41 -2
-85 -3 -97 -2 -18 7 -27 42 -43 79 -37 81 -45 17 -81 l-55 -31 -1 -61 c-1 -34
-1 -77 -1 -95 -1 -35 7 -48 32 -54 8 -2 23 -11 34 -21 11 -10 26 -15 34 -12 8
3 10 0 6 -7 -5 -8 -2 -9 9 -5 9 3 16 3 14 -1 -1 -4 2 -8 7 -9 5 -1 12 -6 16
-13 4 -6 16 -12 28 -13 11 0 19 -5 16 -9 -3 -4 9 -14 26 -23 16 -8 30 -12 30
-8 0 4 6 -1 13 -9 6 -9 37 -29 67 -45 30 -16 66 -36 79 -45 13 -10 28 -15 33
-12 4 3 8 1 8 -5 0 -11 99 -67 112 -64 4 2 8 -2 8 -7 0 -19 19 -10 165 75 81
47 150 85 155 85 5 0 10 4 12 9 2 5 26 20 53 35 28 14 84 46 125 70 l75 44 3
100 3 100 -50 25 c-27 14 -51 24 -53 21 -3 -2 -5 2 -5 10 0 8 23 27 51 43 l51
29 3 102 c3 106 1 111 -43 102 -5 -1 -7 2 -2 6 10 10 -122 86 -135 78 -6 -4
-8 -2 -5 3 6 10 -16 26 -28 20 -2 -1 -10 7 -18 17 -9 12 -20 17 -30 13 -10 -4
-16 -2 -14 6 1 7 -6 11 -15 11 -10 -1 -17 1 -16 5 2 19 -4 24 -12 11 -8 -13
-10 -12 -10 4 0 11 -3 17 -6 13 -4 -3 -13 1 -21 9 -8 8 -19 11 -25 8 -6 -4 -8
-2 -4 4 3 6 -4 14 -16 18 -13 4 -51 25 -85 46 -34 22 -67 37 -73 33 -5 -3 -10
1 -10 9 0 9 -3 16 -7 16 -5 0 -56 -28 -114 -63z m161 -57 c0 -5 -4 -10 -10
-10 -5 0 -10 5 -10 10 0 6 5 10 10 10 6 0 10 -4 10 -10z m-3 -45 c0 -8 -4 -12
-9 -9 -4 3 -8 9 -8 15 0 5 4 9 8 9 5 0 9 -7 9 -15z m13 -65 c14 -6 36 -17 50
-25 19 -11 26 -11 33 -2 6 8 7 6 3 -6 -4 -13 4 -22 32 -35 20 -9 39 -20 40
-24 2 -5 10 -8 18 -8 8 0 14 -5 14 -11 0 -5 4 -8 9 -5 5 3 14 -1 21 -9 7 -8
17 -15 22 -15 6 0 22 -9 38 -20 15 -11 30 -17 33 -13 4 3 9 -2 13 -11 3 -9 10
-13 15 -10 5 3 9 1 9 -4 0 -5 -27 -24 -60 -41 -57 -30 -63 -32 -84 -17 -16 10
-27 11 -34 4 -7 -7 -10 -4 -9 8 1 12 -4 19 -15 18 -10 -1 -16 2 -13 6 3 5 -5
12 -17 16 -12 3 -28 13 -36 21 -8 8 -22 11 -30 8 -9 -3 -13 -3 -9 1 6 6 -89
74 -104 74 -4 0 -73 -39 -154 -86 -107 -63 -149 -84 -157 -76 -8 8 -15 7 -24
-6 -12 -15 -13 -15 -8 4 6 23 -19 40 -38 27 -7 -3 -8 -1 -4 5 3 6 -1 15 -9 20
-13 7 1 18 62 54 43 25 136 80 208 122 112 66 131 74 145 61 8 -7 26 -19 40
-25z m0 34 c0 -8 -19 -13 -24 -6 -3 5 1 9 9 9 8 0 15 -2 15 -3z m170 -18 c0
-3 -4 -8 -10 -11 -5 -3 -10 -1 -10 4 0 6 5 11 10 11 6 0 10 -2 10 -4z m176
-101 c-1 -8 -5 -17 -8 -21 -5 -4 -4 16 1 34 3 9 9 -1 7 -13z m-356 -89 c-7 -7
-13 -7 -20 0 -6 6 -3 10 10 10 13 0 16 -4 10 -10z m4 -34 c3 -5 -1 -9 -9 -9
-8 0 -15 4 -15 9 0 4 4 8 9 8 6 0 12 -4 15 -8z m-464 -22 c0 -5 -5 -10 -11
-10 -5 0 -7 5 -4 10 3 6 8 10 11 10 2 0 4 -4 4 -10z m460 -14 c0 -3 -4 -8 -10
-11 -5 -3 -10 -1 -10 4 0 6 5 11 10 11 6 0 10 -2 10 -4z m157 -11 c0 -8 -4
-12 -9 -9 -5 3 -6 10 -3 15 9 13 12 11 12 -6z m-97 -9 c0 -3 -4 -8 -10 -11 -5
-3 -10 -1 -10 4 0 6 5 11 10 11 6 0 10 -2 10 -4z m-105 -26 c-6 -10 7 -14 34
-11 7 2 10 -2 7 -7 -3 -5 15 -20 39 -32 25 -13 43 -25 41 -28 -15 -15 -136
-79 -138 -73 -6 13 -78 52 -87 47 -5 -3 -11 3 -14 14 -4 17 5 27 49 51 30 17
57 35 60 40 3 5 7 9 10 9 3 0 2 -4 -1 -10z m-65 -140 c8 -5 11 -10 5 -10 -5 0
-17 5 -25 10 -8 5 -10 10 -5 10 6 0 17 -5 25 -10z m490 6 c0 -3 -4 -8 -10 -11
-5 -3 -10 -1 -10 4 0 6 5 11 10 11 6 0 10 -2 10 -4z m-629 -33 c13 -16 12 -17
-3 -4 -17 13 -22 21 -14 21 2 0 10 -8 17 -17z m144 -13 c3 -5 1 -10 -4 -10 -6
0 -11 5 -11 10 0 6 2 10 4 10 3 0 8 -4 11 -10z m-188 -13 c7 0 10 -4 8 -8 -3
-4 8 -13 25 -21 16 -7 30 -15 30 -19 0 -3 16 -11 35 -19 19 -8 35 -18 35 -23
0 -6 10 -2 22 9 13 10 17 12 11 4 -15 -17 -17 -34 -3 -25 6 3 10 2 10 -3 0 -9
44 -33 70 -38 8 -2 76 33 151 76 75 44 142 80 149 80 15 0 100 -52 100 -61 0
-3 -48 -34 -108 -69 -59 -34 -152 -89 -206 -121 -55 -32 -96 -56 -92 -52 3 4
-8 13 -26 20 -18 8 -33 13 -33 11 0 -2 -11 7 -25 20 -13 12 -27 22 -32 22 -15
0 -23 4 -40 19 -9 9 -38 27 -65 41 -26 14 -51 29 -54 33 -4 5 -18 10 -32 10
-14 1 -25 6 -24 11 1 6 -14 17 -33 27 -19 9 -35 20 -35 23 0 4 20 20 45 36 34
22 52 28 75 24 17 -3 35 -6 42 -7z m658 -27 c3 -6 -1 -7 -9 -4 -18 7 -21 14
-7 14 6 0 13 -4 16 -10z m-425 -34 c0 -3 -4 -8 -10 -11 -5 -3 -10 -1 -10 4 0
6 5 11 10 11 6 0 10 -2 10 -4z m-440 -46 c0 -5 -5 -10 -11 -10 -5 0 -7 5 -4
10 3 6 8 10 11 10 2 0 4 -4 4 -10z m240 -80 c0 -5 -2 -10 -4 -10 -3 0 -8 5
-11 10 -3 6 -1 10 4 10 6 0 11 -4 11 -10z m-69 -27 c13 -16 12 -17 -3 -4 -10
7 -18 15 -18 17 0 8 8 3 21 -13z m-37 -39 c3 -8 2 -12 -4 -9 -6 3 -10 10 -10
16 0 14 7 11 14 -7z m306 -174 c0 -5 -5 -10 -11 -10 -5 0 -7 5 -4 10 3 6 8 10
11 10 2 0 4 -4 4 -10z"/>
</g>
</svg>
